<svg xmlns="http://www.w3.org/2000/svg" viewBox="0 0 128 128" fill="none">
  <rect x="8" y="8" width="112" height="112" rx="30" fill="#EEF6FF"/>
  <path
    d="M34 43C34 33.1 42.1 25 52 25H76C85.9 25 94 33.1 94 43V84C94 97.3 83.3 108 70 108H58C44.7 108 34 97.3 34 84V43Z"
    fill="#FFFFFF"
    stroke="#2557DA"
    stroke-width="4"
    stroke-linejoin="round"
  />
  <path
    d="M41 49H87C87 49 85.9 59.5 82.8 67H45.2C42.1 59.5 41 49 41 49Z"
    fill="#DDEBFF"
    stroke="#2557DA"
    stroke-width="3"
    stroke-linejoin="round"
  />
  <circle cx="52" cy="62" r="5.5" fill="#2557DA"/>
  <circle cx="76" cy="62" r="5.5" fill="#2557DA"/>
  <circle cx="50.6" cy="60.7" r="1.1" fill="#FFFFFF"/>
  <circle cx="74.6" cy="60.7" r="1.1" fill="#FFFFFF"/>
  <path d="M55 74C57.3 76.4 60.3 77.7 64 77.7C67.7 77.7 70.7 76.4 73 74" stroke="#2557DA" stroke-width="3.8" stroke-linecap="round"/>
  <circle cx="43.5" cy="69.5" r="4.6" fill="#FFCAD8"/>
  <circle cx="84.5" cy="69.5" r="4.6" fill="#FFCAD8"/>
</svg>
