<svg xmlns="http://www.w3.org/2000/svg" viewBox="0 0 100 100" fill="none" stroke="#2C3E50" stroke-width="2.5" stroke-linecap="round" stroke-linejoin="round">
  <!-- 头部（蓝色圆形） -->
  <circle cx="50" cy="42" r="32" fill="#0099DD"/>
  <circle cx="50" cy="42" r="32"/>
  <!-- 脸部（白色椭圆） -->
  <ellipse cx="50" cy="50" rx="26" ry="24" fill="#FFFFFF"/>
  <ellipse cx="50" cy="50" rx="26" ry="24"/>
  <!-- 思考眼睛（看向右上角） -->
  <ellipse cx="42" cy="40" rx="6" ry="7" fill="#FFFFFF"/>
  <ellipse cx="58" cy="40" rx="6" ry="7" fill="#FFFFFF"/>
  <circle cx="44" cy="38" r="2.5" fill="#2C3E50"/>
  <circle cx="60" cy="38" r="2.5" fill="#2C3E50"/>
  <!-- 鼻子（红色圆形） -->
  <circle cx="50" cy="48" r="4" fill="#E83A3A"/>
  <circle cx="50" cy="48" r="4"/>
  <!-- 鼻子下方线 -->
  <line x1="50" y1="52" x2="50" y2="58"/>
  <!-- 思考嘴巴（撅嘴） -->
  <path d="M 44 62 Q 50 60 56 62" fill="none"/>
  <!-- 胡须 -->
  <line x1="22" y1="48" x2="38" y2="50"/>
  <line x1="22" y1="54" x2="38" y2="54"/>
  <line x1="62" y1="50" x2="78" y2="48"/>
  <line x1="62" y1="54" x2="78" y2="54"/>
  <!-- 思考泡泡 -->
  <circle cx="80" cy="22" r="3" fill="#FFFFFF"/>
  <circle cx="85" cy="14" r="5" fill="#FFFFFF"/>
  <ellipse cx="88" cy="5" rx="10" ry="7" fill="#FFFFFF"/>
  <!-- 问号 -->
  <text x="84" y="8" font-size="10" fill="#2C3E50" stroke="none" font-family="sans-serif">?</text>
  <!-- 项圈 -->
  <path d="M 28 68 Q 50 78 72 68" fill="#E83A3A" stroke="#E83A3A"/>
  <path d="M 28 68 Q 50 78 72 68"/>
  <!-- 铃铛 -->
  <circle cx="50" cy="76" r="5" fill="#FFD93D"/>
  <circle cx="50" cy="76" r="5"/>
  <line x1="47" y1="74" x2="53" y2="74" stroke-width="1.5"/>
  <circle cx="50" cy="77" r="1" fill="#2C3E50" stroke="none"/>
</svg>
